<svg width="897" height="70" viewBox="0 0 897 70" fill="none" xmlns="http://www.w3.org/2000/svg">
<path d="M39.2953 4.032C40.1273 1.792 44.2233 0.672003 51.5833 0.672003C53.4393 0.672003 55.6153 0.800003 58.1114 1.056C60.6713 1.312 61.8553 1.632 61.6633 2.016L41.6953 42.144V65.568C41.6953 66.656 39.9353 67.424 36.4153 67.872C34.6233 68.128 32.8633 68.256 31.1353 68.256C29.4073 68.256 27.6793 68.16 25.9513 67.968C22.4313 67.52 20.6713 66.72 20.6713 65.568V42.72L0.0313469 2.208C-0.224653 1.824 1.08735 1.472 3.96735 1.152C6.84735 0.768003 9.27935 0.576004 11.2633 0.576004C19.1353 0.576004 23.4553 1.728 24.2233 4.032L31.2313 23.616L39.2953 4.032Z" fill="#7FCC33"/>
<path d="M64.7541 62.4C60.7861 57.984 58.8021 51.872 58.8021 44.064C58.8021 36.256 60.7861 30.144 64.7541 25.728C68.7861 21.312 74.1941 19.104 80.9781 19.104C87.7621 19.104 93.1381 21.312 97.1061 25.728C101.074 30.144 103.058 36.256 103.058 44.064C103.058 51.872 101.074 57.984 97.1061 62.4C93.1381 66.816 87.7621 69.024 80.9781 69.024C74.1941 69.024 68.7861 66.816 64.7541 62.4ZM80.9781 35.136C77.3941 35.136 75.6021 38.08 75.6021 43.968C75.6021 49.856 77.3941 52.8 80.9781 52.8C84.6261 52.8 86.4501 49.856 86.4501 43.968C86.4501 38.08 84.6261 35.136 80.9781 35.136Z" fill="#7FCC33"/>
<path d="M109.365 20.64C109.365 19.936 112.117 19.584 117.621 19.584C123.125 19.584 125.877 19.936 125.877 20.64V48.672C125.877 51.872 126.901 53.472 128.949 53.472C130.485 53.472 132.213 52.8 134.133 51.456V20.64C134.133 20 136.853 19.68 142.293 19.68C147.733 19.68 150.453 20 150.453 20.64V52.128H152.949C155.125 52.128 156.213 54.208 156.213 58.368C156.213 60.48 155.765 62.624 154.869 64.8C153.589 67.616 151.861 69.024 149.685 69.024C145.397 69.024 142.229 67.264 140.181 63.744L140.085 63.84C136.181 67.296 131.989 69.024 127.509 69.024C121.301 69.024 116.725 67.488 113.781 64.416C110.837 61.28 109.365 56.128 109.365 48.96V20.64Z" fill="#7FCC33"/>
<path d="M183.088 67.968C183.088 68.416 180.176 68.64 174.352 68.64C168.528 68.512 165.616 68.256 165.616 67.872V36H163.024C162 36 161.168 35.392 160.528 34.176C159.952 32.896 159.664 31.328 159.664 29.472C159.664 22.56 161.712 19.104 165.808 19.104C168.688 19.104 171.088 20 173.008 21.792C174.928 23.52 175.888 25.504 175.888 27.744C177.232 25.12 179.024 23.04 181.264 21.504C183.568 19.904 185.904 19.104 188.272 19.104C191.984 19.104 194.224 20.064 194.992 21.984C195.184 22.496 195.28 23.264 195.28 24.288C195.28 25.248 194.96 27.008 194.32 29.568C193.744 32.128 193.136 33.984 192.496 35.136C191.856 36.288 191.472 36.864 191.344 36.864C191.216 36.864 190.608 36.64 189.52 36.192C188.496 35.68 187.568 35.424 186.736 35.424C184.304 35.424 183.088 37.344 183.088 41.184V67.968Z" fill="#7FCC33"/>
<path d="M237.036 66.72C237.036 67.744 233.996 68.256 227.916 68.256C221.772 68.256 218.7 67.776 218.7 66.816V4.224C218.7 1.984 219.884 0.864 222.252 0.864H240.588C257.42 0.864 265.836 7.424 265.836 20.544C265.836 24.512 265.068 28.128 263.532 31.392C261.996 34.592 259.82 37.152 257.004 39.072L269.1 59.232C268.588 60.768 266.924 62.528 264.108 64.512C260.268 67.264 257.1 68.64 254.604 68.64C252.108 68.64 250.252 67.744 249.036 65.952L240.012 44.928H237.036V66.72ZM237.036 17.856V32.256H237.516C243.596 32.256 246.636 29.728 246.636 24.672C246.636 22.368 246.028 20.672 244.812 19.584C243.66 18.432 241.74 17.856 239.052 17.856H237.036Z" fill="#7FCC33"/>
<path d="M311.133 65.472C307.101 67.84 301.917 69.024 295.581 69.024C289.245 69.024 283.901 66.88 279.549 62.592C275.197 58.24 273.021 52.256 273.021 44.64C273.021 36.96 275.101 30.784 279.261 26.112C283.485 21.44 288.797 19.104 295.197 19.104C301.597 19.104 306.525 20.736 309.981 24C313.501 27.264 315.261 31.232 315.261 35.904C315.261 46.272 309.309 51.456 297.405 51.456H290.781C290.781 53.376 291.293 54.72 292.317 55.488C293.405 56.192 294.973 56.544 297.021 56.544C301.501 56.544 305.757 55.52 309.789 53.472C309.853 53.408 310.141 53.856 310.653 54.816C312.189 57.568 312.957 59.904 312.957 61.824C312.957 63.68 312.349 64.896 311.133 65.472ZM299.133 37.728C299.133 35.04 297.821 33.696 295.197 33.696C293.981 33.696 292.925 34.08 292.029 34.848C291.197 35.552 290.781 36.608 290.781 38.016V40.992H295.965C298.077 40.992 299.133 39.904 299.133 37.728Z" fill="#7FCC33"/>
<path d="M337.276 44.256C337.276 50.528 339.644 53.664 344.38 53.664C347.452 53.664 350.012 53.056 352.06 51.84C353.02 51.84 353.788 53.504 354.364 56.832C355.004 60.096 355.324 62.336 355.324 63.552C355.324 64.704 355.164 65.472 354.844 65.856C351.452 67.968 346.812 69.024 340.924 69.024C335.036 69.024 330.012 66.848 325.852 62.496C321.756 58.08 319.708 52.096 319.708 44.544C319.708 36.928 321.724 30.784 325.756 26.112C329.852 21.44 335.26 19.104 341.98 19.104C348.764 19.104 353.468 20.736 356.092 24C356.668 24.704 356.956 25.76 356.956 27.168C356.956 28.512 356.7 30.176 356.188 32.16C355.036 36.256 353.532 38.624 351.676 39.264C351.42 39.328 351.036 39.36 350.524 39.36C350.076 39.36 349.5 38.976 348.796 38.208C346.3 35.712 344.284 34.464 342.748 34.464C341.276 34.464 339.996 35.232 338.908 36.768C337.82 38.304 337.276 40.8 337.276 44.256Z" fill="#7FCC33"/>
<path d="M398.508 65.472C394.476 67.84 389.292 69.024 382.956 69.024C376.62 69.024 371.276 66.88 366.924 62.592C362.572 58.24 360.396 52.256 360.396 44.64C360.396 36.96 362.476 30.784 366.636 26.112C370.86 21.44 376.172 19.104 382.572 19.104C388.972 19.104 393.9 20.736 397.356 24C400.876 27.264 402.636 31.232 402.636 35.904C402.636 46.272 396.684 51.456 384.78 51.456H378.156C378.156 53.376 378.668 54.72 379.692 55.488C380.78 56.192 382.348 56.544 384.396 56.544C388.876 56.544 393.132 55.52 397.164 53.472C397.228 53.408 397.516 53.856 398.028 54.816C399.564 57.568 400.332 59.904 400.332 61.824C400.332 63.68 399.724 64.896 398.508 65.472ZM386.508 37.728C386.508 35.04 385.196 33.696 382.572 33.696C381.356 33.696 380.3 34.08 379.404 34.848C378.572 35.552 378.156 36.608 378.156 38.016V40.992H383.34C385.452 40.992 386.508 39.904 386.508 37.728Z" fill="#7FCC33"/>
<path d="M428.971 67.488C428.971 67.936 426.667 68.16 422.059 68.16C415.659 67.968 412.459 67.616 412.459 67.104V36H409.963C408.299 36 407.211 34.592 406.699 31.776C406.571 30.944 406.507 30.112 406.507 29.28C406.507 27.296 406.891 25.312 407.659 23.328C408.811 20.512 410.603 19.104 413.035 19.104C415.467 19.104 417.643 19.68 419.563 20.832C421.483 21.984 422.763 23.136 423.403 24.288C427.435 20.832 432.235 19.104 437.803 19.104C443.371 19.104 447.403 20.608 449.899 23.616C452.395 26.624 453.643 31.552 453.643 38.4V67.2C453.643 67.968 450.891 68.352 445.387 68.352C439.947 68.352 437.227 67.968 437.227 67.2V39.456C437.227 36.256 436.107 34.656 433.867 34.656C433.227 34.656 432.331 34.944 431.179 35.52C430.027 36.032 429.291 36.416 428.971 36.672V67.488Z" fill="#7FCC33"/>
<path d="M483.862 67.488C483.862 68.256 481.174 68.64 475.798 68.64C469.398 68.384 466.198 67.968 466.198 67.392V33.408H461.302C460.022 33.408 459.382 31.2 459.382 26.784C459.382 25.632 459.478 24.224 459.67 22.56C459.926 20.896 460.406 20.064 461.11 20.064H466.198V11.616C466.198 10.336 468.886 9.696 474.262 9.696C479.702 9.696 482.422 10.208 482.422 11.232V17.376L482.518 20.064H490.678C491.766 20.064 492.31 22.304 492.31 26.784C492.31 31.264 491.766 33.504 490.678 33.504H483.862V67.488Z" fill="#7FCC33"/>
<path d="M514.74 62.4V2.688C514.74 1.344 517.972 0.672003 524.436 0.672003C530.964 0.672003 534.228 1.344 534.228 2.688V49.728H549.012C550.164 49.728 550.964 51.232 551.412 54.24C551.604 55.712 551.7 57.216 551.7 58.752C551.7 60.288 551.604 61.856 551.412 63.456C550.9 66.528 550.068 68.064 548.916 68.064H519.348C517.94 68.064 516.82 67.488 515.988 66.336C515.156 65.184 514.74 63.872 514.74 62.4Z" fill="#7FCC33"/>
<path d="M561.067 62.4C557.099 57.984 555.115 51.872 555.115 44.064C555.115 36.256 557.099 30.144 561.067 25.728C565.099 21.312 570.507 19.104 577.291 19.104C584.075 19.104 589.451 21.312 593.419 25.728C597.387 30.144 599.371 36.256 599.371 44.064C599.371 51.872 597.387 57.984 593.419 62.4C589.451 66.816 584.075 69.024 577.291 69.024C570.507 69.024 565.099 66.816 561.067 62.4ZM577.291 35.136C573.707 35.136 571.915 38.08 571.915 43.968C571.915 49.856 573.707 52.8 577.291 52.8C580.939 52.8 582.763 49.856 582.763 43.968C582.763 38.08 580.939 35.136 577.291 35.136Z" fill="#7FCC33"/>
<path d="M621.901 44.256C621.901 50.528 624.269 53.664 629.005 53.664C632.077 53.664 634.637 53.056 636.685 51.84C637.645 51.84 638.413 53.504 638.989 56.832C639.629 60.096 639.949 62.336 639.949 63.552C639.949 64.704 639.789 65.472 639.469 65.856C636.077 67.968 631.437 69.024 625.549 69.024C619.661 69.024 614.637 66.848 610.477 62.496C606.381 58.08 604.333 52.096 604.333 44.544C604.333 36.928 606.349 30.784 610.381 26.112C614.477 21.44 619.885 19.104 626.605 19.104C633.389 19.104 638.093 20.736 640.717 24C641.293 24.704 641.581 25.76 641.581 27.168C641.581 28.512 641.325 30.176 640.813 32.16C639.661 36.256 638.157 38.624 636.301 39.264C636.045 39.328 635.661 39.36 635.149 39.36C634.701 39.36 634.125 38.976 633.421 38.208C630.925 35.712 628.909 34.464 627.373 34.464C625.901 34.464 624.621 35.232 623.533 36.768C622.445 38.304 621.901 40.8 621.901 44.256Z" fill="#7FCC33"/>
<path d="M652.893 33.216C651.101 30.016 650.205 27.424 650.205 25.44C650.205 23.392 650.749 22.08 651.837 21.504C655.485 19.904 660.477 19.104 666.813 19.104C673.213 19.104 677.725 20.608 680.349 23.616C682.973 26.56 684.285 30.944 684.285 36.768V51.936H687.549C688.637 51.936 689.469 52.576 690.045 53.856C690.685 55.136 691.005 56.896 691.005 59.136C691.005 61.376 690.429 63.584 689.277 65.76C688.189 67.936 686.685 69.024 684.765 69.024C681.309 69.024 678.525 68.096 676.413 66.24C675.453 65.472 674.717 64.544 674.205 63.456C671.261 67.168 666.685 69.024 660.477 69.024C655.805 69.024 651.869 67.36 648.669 64.032C645.469 60.704 643.869 56.768 643.869 52.224C643.869 41.792 650.109 36.576 662.589 36.576H667.869V35.616C667.869 33.952 667.581 32.896 667.005 32.448C666.493 31.936 665.245 31.68 663.261 31.68C660.829 31.68 657.373 32.192 652.893 33.216ZM660.573 50.88C660.573 52.288 660.957 53.376 661.725 54.144C662.493 54.848 663.453 55.2 664.605 55.2C665.821 55.2 666.909 54.72 667.869 53.76V46.368H665.181C662.109 46.368 660.573 47.872 660.573 50.88Z" fill="#7FCC33"/>
<path d="M718.519 67.488C718.519 68.256 715.831 68.64 710.455 68.64C704.055 68.384 700.855 67.968 700.855 67.392V33.408H695.959C694.679 33.408 694.039 31.2 694.039 26.784C694.039 25.632 694.135 24.224 694.327 22.56C694.583 20.896 695.063 20.064 695.767 20.064H700.855V11.616C700.855 10.336 703.543 9.696 708.919 9.696C714.359 9.696 717.079 10.208 717.079 11.232V17.376L717.175 20.064H725.335C726.423 20.064 726.967 22.304 726.967 26.784C726.967 31.264 726.423 33.504 725.335 33.504H718.519V67.488Z" fill="#7FCC33"/>
<path d="M749.35 67.488C749.35 68 746.406 68.256 740.518 68.256C734.694 68.256 731.782 68.032 731.782 67.584V20.448C731.782 20 734.694 19.776 740.518 19.776C746.406 19.776 749.35 19.968 749.35 20.352V67.488ZM749.35 14.688C749.35 15.136 746.406 15.36 740.518 15.36C734.694 15.36 731.782 15.168 731.782 14.784V0.959999C731.782 0.32 734.694 0 740.518 0C746.406 0 749.35 0.192001 749.35 0.576004V14.688Z" fill="#7FCC33"/>
<path d="M762.16 62.4C758.192 57.984 756.208 51.872 756.208 44.064C756.208 36.256 758.192 30.144 762.16 25.728C766.192 21.312 771.6 19.104 778.384 19.104C785.168 19.104 790.544 21.312 794.512 25.728C798.48 30.144 800.464 36.256 800.464 44.064C800.464 51.872 798.48 57.984 794.512 62.4C790.544 66.816 785.168 69.024 778.384 69.024C771.6 69.024 766.192 66.816 762.16 62.4ZM778.384 35.136C774.8 35.136 773.008 38.08 773.008 43.968C773.008 49.856 774.8 52.8 778.384 52.8C782.032 52.8 783.856 49.856 783.856 43.968C783.856 38.08 782.032 35.136 778.384 35.136Z" fill="#7FCC33"/>
<path d="M827.315 67.488C827.315 67.936 825.011 68.16 820.403 68.16C814.003 67.968 810.803 67.616 810.803 67.104V36H808.307C806.643 36 805.555 34.592 805.043 31.776C804.915 30.944 804.851 30.112 804.851 29.28C804.851 27.296 805.235 25.312 806.003 23.328C807.155 20.512 808.947 19.104 811.379 19.104C813.811 19.104 815.987 19.68 817.907 20.832C819.827 21.984 821.107 23.136 821.747 24.288C825.779 20.832 830.579 19.104 836.147 19.104C841.715 19.104 845.747 20.608 848.243 23.616C850.739 26.624 851.987 31.552 851.987 38.4V67.2C851.987 67.968 849.235 68.352 843.731 68.352C838.291 68.352 835.571 67.968 835.571 67.2V39.456C835.571 36.256 834.451 34.656 832.211 34.656C831.571 34.656 830.675 34.944 829.523 35.52C828.371 36.032 827.635 36.416 827.315 36.672V67.488Z" fill="#7FCC33"/>
<path d="M862.142 50.784C867.326 53.92 871.422 55.488 874.43 55.488C876.35 55.488 877.31 54.816 877.31 53.472C877.31 52.512 875.646 51.264 872.318 49.728C864.318 46.464 860.318 41.12 860.318 33.696C860.318 28.96 862.046 25.344 865.502 22.848C868.958 20.352 873.086 19.104 877.886 19.104C882.75 19.104 886.846 19.616 890.174 20.64C893.566 21.664 895.262 23.008 895.262 24.672C895.262 26.08 894.558 27.936 893.15 30.24C891.806 32.544 890.878 33.792 890.366 33.984C887.614 32.448 884.638 31.68 881.438 31.68C879.71 31.68 878.846 32.288 878.846 33.504C878.846 34.272 879.166 34.944 879.806 35.52C880.51 36.032 881.758 36.704 883.55 37.536C885.342 38.304 886.814 39.008 887.966 39.648C889.182 40.288 890.526 41.184 891.998 42.336C895.07 44.768 896.606 47.936 896.606 51.84C896.606 56.96 894.91 61.12 891.518 64.32C888.126 67.456 883.006 69.024 876.158 69.024C871.614 69.024 867.486 68.256 863.774 66.72C860.062 65.184 858.206 63.072 858.206 60.384C858.206 58.592 858.622 56.704 859.454 54.72C860.35 52.736 861.246 51.424 862.142 50.784Z" fill="#7FCC33"/>
</svg>
