<svg width="526" height="86" viewBox="0 0 526 86" fill="none" xmlns="http://www.w3.org/2000/svg">
<path d="M40.2079 3.96796C41.0399 1.72796 45.1359 0.607962 52.4959 0.607962C54.3519 0.607962 56.5279 0.735962 59.0239 0.991962C61.5839 1.24796 62.7679 1.56796 62.5759 1.95196L42.6079 42.08V65.504C42.6079 66.592 40.8479 67.36 37.3279 67.808C35.5359 68.064 33.7759 68.192 32.0479 68.192C30.3199 68.192 28.5919 68.096 26.8639 67.904C23.3439 67.456 21.5839 66.656 21.5839 65.504V42.656L0.943945 2.14396C0.687945 1.75996 1.99994 1.40796 4.87994 1.08796C7.75994 0.703962 10.1919 0.511963 12.1759 0.511963C20.0479 0.511963 24.3679 1.66396 25.1359 3.96796L32.1439 23.552L40.2079 3.96796Z" fill="#7FCC33"/>
<path d="M65.6667 62.336C61.6987 57.92 59.7147 51.808 59.7147 44C59.7147 36.192 61.6987 30.08 65.6667 25.664C69.6987 21.248 75.1067 19.04 81.8907 19.04C88.6747 19.04 94.0507 21.248 98.0187 25.664C101.987 30.08 103.971 36.192 103.971 44C103.971 51.808 101.987 57.92 98.0187 62.336C94.0507 66.752 88.6747 68.96 81.8907 68.96C75.1067 68.96 69.6987 66.752 65.6667 62.336ZM81.8907 35.072C78.3067 35.072 76.5147 38.016 76.5147 43.904C76.5147 49.792 78.3067 52.736 81.8907 52.736C85.5387 52.736 87.3627 49.792 87.3627 43.904C87.3627 38.016 85.5387 35.072 81.8907 35.072Z" fill="#7FCC33"/>
<path d="M110.277 20.576C110.277 19.872 113.029 19.52 118.533 19.52C124.037 19.52 126.789 19.872 126.789 20.576V48.608C126.789 51.808 127.813 53.408 129.861 53.408C131.397 53.408 133.125 52.736 135.045 51.392V20.576C135.045 19.936 137.765 19.616 143.205 19.616C148.645 19.616 151.365 19.936 151.365 20.576V52.064H153.861C156.037 52.064 157.125 54.144 157.125 58.304C157.125 60.416 156.677 62.56 155.781 64.736C154.501 67.552 152.773 68.96 150.597 68.96C146.309 68.96 143.141 67.2 141.093 63.68L140.997 63.776C137.093 67.232 132.901 68.96 128.421 68.96C122.213 68.96 117.637 67.424 114.693 64.352C111.749 61.216 110.277 56.064 110.277 48.896V20.576Z" fill="#7FCC33"/>
<path d="M184 67.904C184 68.352 181.088 68.576 175.264 68.576C169.44 68.448 166.528 68.192 166.528 67.808V35.936H163.936C162.912 35.936 162.08 35.328 161.44 34.112C160.864 32.832 160.576 31.264 160.576 29.408C160.576 22.496 162.624 19.04 166.72 19.04C169.6 19.04 172 19.936 173.92 21.728C175.84 23.456 176.8 25.44 176.8 27.68C178.144 25.056 179.936 22.976 182.176 21.44C184.48 19.84 186.816 19.04 189.184 19.04C192.896 19.04 195.136 20 195.904 21.92C196.096 22.432 196.192 23.2 196.192 24.224C196.192 25.184 195.872 26.944 195.232 29.504C194.656 32.064 194.048 33.92 193.408 35.072C192.768 36.224 192.384 36.8 192.256 36.8C192.128 36.8 191.52 36.576 190.432 36.128C189.408 35.616 188.48 35.36 187.648 35.36C185.216 35.36 184 37.28 184 41.12V67.904Z" fill="#7FCC33"/>
<path d="M251.004 2.71996C251.004 1.43996 254.46 0.799959 261.372 0.799959C268.348 0.799959 271.836 1.43996 271.836 2.71996V46.784C271.836 53.312 269.5 58.656 264.828 62.816C260.156 66.912 253.692 68.96 245.436 68.96C237.244 68.96 230.556 66.848 225.372 62.624C220.252 58.336 217.692 52.576 217.692 45.344V2.81596C217.692 1.53596 221.148 0.895958 228.06 0.895958C235.036 0.895958 238.524 1.53596 238.524 2.81596V46.112C238.524 47.392 239.196 48.416 240.54 49.184C241.948 49.952 243.42 50.336 244.956 50.336C246.492 50.336 247.868 49.984 249.084 49.28C250.364 48.576 251.004 47.52 251.004 46.112V2.71996Z" fill="#7FCC33"/>
<path d="M299.478 67.424C299.478 67.872 297.174 68.096 292.566 68.096C286.166 67.904 282.966 67.552 282.966 67.04V35.936H280.47C278.806 35.936 277.718 34.528 277.206 31.712C277.078 30.88 277.014 30.048 277.014 29.216C277.014 27.232 277.398 25.248 278.166 23.264C279.318 20.448 281.11 19.04 283.542 19.04C285.974 19.04 288.15 19.616 290.07 20.768C291.99 21.92 293.27 23.072 293.91 24.224C297.942 20.768 302.742 19.04 308.31 19.04C313.878 19.04 317.91 20.544 320.406 23.552C322.902 26.56 324.15 31.488 324.15 38.336V67.136C324.15 67.904 321.398 68.288 315.894 68.288C310.454 68.288 307.734 67.904 307.734 67.136V39.392C307.734 36.192 306.614 34.592 304.374 34.592C303.734 34.592 302.838 34.88 301.686 35.456C300.534 35.968 299.798 36.352 299.478 36.608V67.424Z" fill="#7FCC33"/>
<path d="M328.929 20.48C328.929 19.776 331.841 19.424 337.665 19.424C343.553 19.424 346.593 19.744 346.785 20.384L353.697 43.04L360.321 20.192C360.577 19.68 362.561 19.424 366.273 19.424C374.785 19.424 378.849 19.84 378.465 20.672L355.905 84.896C355.841 85.28 354.081 85.472 350.625 85.472C347.233 85.472 344.065 85.344 341.121 85.088C338.177 84.896 336.769 84.64 336.897 84.32L345.249 64.16L328.929 20.48Z" fill="#7FCC33"/>
<path d="M383.371 20.576C383.371 19.872 386.123 19.52 391.627 19.52C397.131 19.52 399.883 19.872 399.883 20.576V48.608C399.883 51.808 400.907 53.408 402.955 53.408C404.491 53.408 406.219 52.736 408.139 51.392V20.576C408.139 19.936 410.859 19.616 416.299 19.616C421.739 19.616 424.459 19.936 424.459 20.576V52.064H426.955C429.131 52.064 430.219 54.144 430.219 58.304C430.219 60.416 429.771 62.56 428.875 64.736C427.595 67.552 425.867 68.96 423.691 68.96C419.403 68.96 416.235 67.2 414.187 63.68L414.091 63.776C410.187 67.232 405.995 68.96 401.515 68.96C395.307 68.96 390.731 67.424 387.787 64.352C384.843 61.216 383.371 56.064 383.371 48.896V20.576Z" fill="#7FCC33"/>
<path d="M456.134 67.424C456.134 67.872 453.83 68.096 449.222 68.096C442.822 67.904 439.622 67.552 439.622 67.04V35.936H437.126C435.462 35.936 434.374 34.528 433.862 31.712C433.734 30.88 433.67 30.048 433.67 29.216C433.67 27.232 434.054 25.248 434.822 23.264C435.974 20.448 437.766 19.04 440.198 19.04C442.63 19.04 444.806 19.616 446.726 20.768C448.646 21.92 449.926 23.072 450.566 24.224C454.598 20.768 459.398 19.04 464.966 19.04C470.534 19.04 474.566 20.544 477.062 23.552C479.558 26.56 480.806 31.488 480.806 38.336V67.136C480.806 67.904 478.054 68.288 472.55 68.288C467.11 68.288 464.39 67.904 464.39 67.136V39.392C464.39 36.192 463.27 34.592 461.03 34.592C460.39 34.592 459.494 34.88 458.342 35.456C457.19 35.968 456.454 36.352 456.134 36.608V67.424Z" fill="#7FCC33"/>
<path d="M490.961 50.72C496.145 53.856 500.241 55.424 503.249 55.424C505.169 55.424 506.129 54.752 506.129 53.408C506.129 52.448 504.465 51.2 501.137 49.664C493.137 46.4 489.137 41.056 489.137 33.632C489.137 28.896 490.865 25.28 494.321 22.784C497.777 20.288 501.905 19.04 506.705 19.04C511.569 19.04 515.665 19.552 518.993 20.576C522.385 21.6 524.081 22.944 524.081 24.608C524.081 26.016 523.377 27.872 521.969 30.176C520.625 32.48 519.697 33.728 519.185 33.92C516.433 32.384 513.457 31.616 510.257 31.616C508.529 31.616 507.665 32.224 507.665 33.44C507.665 34.208 507.985 34.88 508.625 35.456C509.329 35.968 510.577 36.64 512.369 37.472C514.161 38.24 515.633 38.944 516.785 39.584C518.001 40.224 519.345 41.12 520.817 42.272C523.889 44.704 525.425 47.872 525.425 51.776C525.425 56.896 523.729 61.056 520.337 64.256C516.945 67.392 511.825 68.96 504.977 68.96C500.433 68.96 496.305 68.192 492.593 66.656C488.881 65.12 487.025 63.008 487.025 60.32C487.025 58.528 487.441 56.64 488.273 54.656C489.169 52.672 490.065 51.36 490.961 50.72Z" fill="#7FCC33"/>
</svg>
