<?xml version="1.0" encoding="utf-8"?>
<!-- Generator: Adobe Illustrator 24.2.0, SVG Export Plug-In . SVG Version: 6.00 Build 0)  -->
<svg version="1.1" id="Layer_1" xmlns="http://www.w3.org/2000/svg" xmlns:xlink="http://www.w3.org/1999/xlink" x="0px" y="0px"
	 viewBox="0 0 273 359" style="enable-background:new 0 0 273 359;" xml:space="preserve">
<style type="text/css">
	.st0{fill:#7FCC33;stroke:#669933;stroke-width:7;stroke-linecap:round;stroke-linejoin:round;stroke-miterlimit:10;}
	.st1{fill:#7FCC33;stroke:#4C6B2E;stroke-width:7;stroke-linecap:round;stroke-linejoin:round;stroke-miterlimit:10;}
	.st2{fill:#7FCC33;stroke:#E5E5E5;stroke-width:7;stroke-linecap:round;stroke-linejoin:round;stroke-miterlimit:10;}
	.st3{fill:none;stroke:#E5E5E5;stroke-width:7;stroke-linecap:round;stroke-linejoin:round;stroke-miterlimit:10;}
	.st4{fill:#669933;stroke:#669933;stroke-width:7;stroke-linecap:round;stroke-linejoin:round;stroke-miterlimit:10;}
	.st5{fill:url(#SVGID_1_);stroke:url(#SVGID_2_);stroke-width:7;stroke-linecap:round;stroke-linejoin:round;stroke-miterlimit:10;}
	.st6{fill:#7FCC33;}
</style>
<g>
	<path class="st0" d="M84.8,69.8c0,0,61.8,41.9,74.5,51.5"/>
	<polyline class="st1" points="54.4,54.2 35.4,19.1 69.3,36.7 	"/>
	<g>
		<path class="st2" d="M231.1,213.6l12.4,15L231.1,213.6z"/>
		<polyline class="st3" points="231.8,240.2 231.8,215.5 256.5,215.5 		"/>
	</g>
	<polygon class="st4" points="54.4,54.2 78.9,66.2 69.3,36.7 34.9,18.5 	"/>
	<linearGradient id="SVGID_1_" gradientUnits="userSpaceOnUse" x1="37.4836" y1="18.3525" x2="224.937" y2="213.4181">
		<stop  offset="0" style="stop-color:#7FCC33"/>
		<stop  offset="0.5718" style="stop-color:#7FCC33"/>
		<stop  offset="1" style="stop-color:#FFFFFF"/>
	</linearGradient>
	<linearGradient id="SVGID_2_" gradientUnits="userSpaceOnUse" x1="38.4378" y1="22.7913" x2="232.694" y2="217.0475">
		<stop  offset="0" style="stop-color:#7FCC33"/>
		<stop  offset="0.5718" style="stop-color:#7FCC33"/>
		<stop  offset="1" style="stop-color:#FFFFFF"/>
	</linearGradient>
	<path class="st5" d="M16.5,49.7c0,0,121.6,79.1,152.2,121.5c2.4,3.3,3.6,7.2,3.6,11.2c-0.1,14.6,4,53.7,51,37.7
		c0,0,22.1-13,15.6-35.1c0,0-2-25.4-27.2-27.5c-2.9-0.3-5.9-0.5-8.7,0.2c-2.8,0.6-8.9-0.6-20.6-12.3C164.1,127.1,91.3,51.6,66.6,3.5
		c0,0-5.2,33.8,18.2,66.3C84.8,69.8,41.9,41.2,16.5,49.7z"/>
</g>
<g>
	<path class="st6" d="M41.9,276.2c0-1.2,3.3-1.8,10-1.8c6.7,0,10,0.6,10,1.8v42.2c0,6.3-2.2,11.4-6.7,15.3c-4.5,4-10.7,5.9-18.5,5.9
		c-7.9,0-14.3-2-19.2-6.1c-4.9-4.1-7.4-9.6-7.4-16.5v-40.8c0-1.2,3.3-1.8,10-1.8c6.7,0,10,0.6,10,1.8v41.5c0,1.2,0.6,2.2,1.9,2.9
		c1.3,0.7,2.8,1.1,4.2,1.1c1.5,0,2.8-0.3,4-1c1.2-0.7,1.8-1.7,1.8-3V276.2z"/>
	<path class="st6" d="M88.3,338.2c0,0.4-2.2,0.6-6.6,0.6c-6.1-0.2-9.2-0.5-9.2-1V308h-2.4c-1.6,0-2.6-1.3-3.1-4
		c-0.1-0.8-0.2-1.6-0.2-2.4c0-1.9,0.4-3.8,1.1-5.7c1.1-2.7,2.8-4,5.2-4c2.3,0,4.4,0.6,6.3,1.7c1.8,1.1,3.1,2.2,3.7,3.3
		c3.9-3.3,8.5-5,13.8-5s9.2,1.4,11.6,4.3c2.4,2.9,3.6,7.6,3.6,14.2v27.6c0,0.7-2.6,1.1-7.9,1.1c-5.2,0-7.9-0.4-7.9-1.1v-26.6
		c0-3.1-1.1-4.6-3.2-4.6c-0.6,0-1.5,0.3-2.6,0.8c-1.1,0.5-1.8,0.9-2.1,1.2V338.2z"/>
	<path class="st6" d="M116.6,293.2c0-0.7,2.8-1,8.4-1s8.5,0.3,8.7,0.9l6.6,21.7l6.3-21.9c0.2-0.5,2.1-0.7,5.7-0.7
		c8.2,0,12.1,0.4,11.7,1.2l-21.6,61.5c-0.1,0.4-1.7,0.6-5,0.6c-3.3,0-6.3-0.1-9.2-0.3c-2.8-0.2-4.2-0.5-4-0.8l8-19.3L116.6,293.2z"
		/>
	<path class="st6" d="M168.7,293.3c0-0.7,2.6-1,7.9-1c5.3,0,7.9,0.3,7.9,1v26.9c0,3.1,1,4.6,2.9,4.6c1.5,0,3.1-0.6,5-1.9v-29.5
		c0-0.6,2.6-0.9,7.8-0.9c5.2,0,7.8,0.3,7.8,0.9v30.2h2.4c2.1,0,3.1,2,3.1,6c0,2-0.4,4.1-1.3,6.2c-1.2,2.7-2.9,4-5,4
		c-4.1,0-7.1-1.7-9.1-5.1l-0.1,0.1c-3.7,3.3-7.8,5-12.1,5c-6,0-10.3-1.5-13.2-4.5c-2.8-3-4.2-7.9-4.2-14.8V293.3z"/>
	<path class="st6" d="M238.5,338.2c0,0.4-2.2,0.6-6.6,0.6c-6.1-0.2-9.2-0.5-9.2-1V308h-2.4c-1.6,0-2.6-1.3-3.1-4
		c-0.1-0.8-0.2-1.6-0.2-2.4c0-1.9,0.4-3.8,1.1-5.7c1.1-2.7,2.8-4,5.2-4c2.3,0,4.4,0.6,6.3,1.7c1.8,1.1,3.1,2.2,3.7,3.3
		c3.9-3.3,8.5-5,13.8-5s9.2,1.4,11.6,4.3c2.4,2.9,3.6,7.6,3.6,14.2v27.6c0,0.7-2.6,1.1-7.9,1.1c-5.2,0-7.9-0.4-7.9-1.1v-26.6
		c0-3.1-1.1-4.6-3.2-4.6c-0.6,0-1.5,0.3-2.6,0.8c-1.1,0.5-1.8,0.9-2.1,1.2V338.2z"/>
</g>
</svg>
