<svg id="Layer_1" data-name="Layer 1" xmlns="http://www.w3.org/2000/svg" xmlns:xlink="http://www.w3.org/1999/xlink" viewBox="0 0 273 358.97"><defs><style>.cls-1,.cls-2,.cls-3,.cls-7{fill:#7fcc33;}.cls-1,.cls-5{stroke:#693;}.cls-1,.cls-2,.cls-3,.cls-4,.cls-5,.cls-6{stroke-linecap:round;stroke-linejoin:round;stroke-width:7px;}.cls-2{stroke:#4c6b2e;}.cls-3,.cls-4{stroke:#e5e5e5;}.cls-4{fill:none;}.cls-5{fill:#693;}.cls-6{fill:url(#linear-gradient);stroke:url(#linear-gradient-2);}.cls-7{font-size:92px;font-family:LilitaOne, Lilita One;}</style><linearGradient id="linear-gradient" x1="37.48" y1="18.35" x2="224.94" y2="213.42" gradientUnits="userSpaceOnUse"><stop offset="0" stop-color="#7fcc33"/><stop offset="0.57" stop-color="#7fcc33"/><stop offset="1" stop-color="#fff"/></linearGradient><linearGradient id="linear-gradient-2" x1="38.44" y1="22.79" x2="232.69" y2="217.05" xlink:href="#linear-gradient"/></defs><path class="cls-1" d="M84.79,69.84s61.79,41.93,74.47,51.54"/><polyline class="cls-2" points="54.37 54.2 35.36 19.11 69.26 36.66"/><path class="cls-3" d="M231.13,213.58l12.36,15Z"/><polyline class="cls-4" points="231.78 240.25 231.78 215.53 256.5 215.53"/><polygon class="cls-5" points="54.37 54.2 78.87 66.19 69.26 36.66 34.88 18.5 54.37 54.2"/><path class="cls-6" d="M16.5,49.68S138.14,128.8,168.75,171.15a19.09,19.09,0,0,1,3.63,11.22c-.06,14.58,4,53.72,51,37.72,0,0,22.11-13,15.61-35.13,0,0-1.95-25.36-27.23-27.53a29.14,29.14,0,0,0-8.75.17c-2.84.62-8.9-.6-20.61-12.31C164.14,127.08,91.3,51.63,66.58,3.5c0,0-5.2,33.82,18.21,66.34C84.79,69.84,41.87,41.22,16.5,49.68Z"/><text class="cls-7" transform="translate(7.2 338.73)">Unyun</text></svg>