<svg width="101" height="100" viewBox="0 0 101 100" fill="none" xmlns="http://www.w3.org/2000/svg">
<path d="M50.5 6.25C41.8471 6.25 33.3885 8.81589 26.1938 13.6232C18.9992 18.4305 13.3916 25.2633 10.0803 33.2576C6.76896 41.2519 5.90256 50.0485 7.59066 58.5352C9.27877 67.0219 13.4455 74.8174 19.5641 80.9359C25.6826 87.0545 33.4782 91.2213 41.9648 92.9094C50.4515 94.5975 59.2482 93.7311 67.2424 90.4197C75.2367 87.1084 82.0695 81.5008 86.8768 74.3062C91.6841 67.1115 94.25 58.6529 94.25 50C94.25 38.3968 89.6407 27.2688 81.4359 19.0641C73.2312 10.8594 62.1032 6.25 50.5 6.25V6.25ZM31.75 82.4375V76.1875C31.6128 73.5486 32.5191 70.9616 34.2732 68.9853C36.0273 67.009 38.4885 65.802 41.125 65.625H59.875C62.5173 65.8019 64.9833 67.0133 66.7383 68.9964C68.4933 70.9796 69.3957 73.5746 69.25 76.2187V82.4687C63.5577 85.7847 57.0878 87.5318 50.5 87.5318C43.9123 87.5318 37.4424 85.7847 31.75 82.4687V82.4375ZM75.5 77.875V75.9687C75.5852 71.7083 73.9967 67.5842 71.0754 64.4818C68.1541 61.3794 64.1329 59.5459 59.875 59.375H41.125C36.8644 59.538 32.8385 61.369 29.9155 64.4732C26.9925 67.5774 25.4067 71.706 25.5 75.9687V77.8125C19.8393 72.7494 15.8493 66.0868 14.058 58.7064C12.2667 51.3259 12.7586 43.5756 15.4686 36.4808C18.1785 29.3861 22.9788 23.2814 29.2342 18.9745C35.4896 14.6676 42.9053 12.3617 50.5 12.3617C58.0947 12.3617 65.5104 14.6676 71.7658 18.9745C78.0212 23.2814 82.8215 29.3861 85.5315 36.4808C88.2414 43.5756 88.7333 51.3259 86.942 58.7064C85.1508 66.0868 81.1608 72.7494 75.5 77.8125V77.875Z" fill="#AFAFAF"/>
<path d="M50.5 21.875C47.4097 21.875 44.3887 22.7914 41.8192 24.5083C39.2497 26.2252 37.247 28.6655 36.0644 31.5206C34.8818 34.3757 34.5723 37.5173 35.1752 40.5483C35.7781 43.5792 37.2663 46.3633 39.4515 48.5485C41.6367 50.7337 44.4208 52.2219 47.4517 52.8248C50.4827 53.4277 53.6243 53.1182 56.4794 51.9356C59.3345 50.753 61.7748 48.7503 63.4917 46.1808C65.2086 43.6113 66.125 40.5903 66.125 37.5C66.125 33.356 64.4788 29.3817 61.5486 26.4515C58.6183 23.5212 54.644 21.875 50.5 21.875V21.875ZM50.5 46.875C48.6458 46.875 46.8333 46.3252 45.2915 45.295C43.7498 44.2649 42.5482 42.8007 41.8386 41.0877C41.1291 39.3746 40.9434 37.4896 41.3051 35.671C41.6669 33.8525 42.5598 32.182 43.8709 30.8709C45.182 29.5598 46.8525 28.6669 48.671 28.3051C50.4896 27.9434 52.3746 28.1291 54.0877 28.8386C55.8007 29.5482 57.2649 30.7498 58.295 32.2915C59.3252 33.8332 59.875 35.6458 59.875 37.5C59.875 39.9864 58.8873 42.371 57.1291 44.1291C55.371 45.8873 52.9864 46.875 50.5 46.875Z" fill="#AFAFAF"/>
</svg>
